<svg xmlns="http://www.w3.org/2000/svg" width="768" height="768" viewBox="0 0 768 768">
<g>
<path d="M 594.43 629.39 C590.99,630.71 587.19,629.72 580.00,625.64 C572.89,621.61 554.58,611.71 508.00,586.72 C496.73,580.67 486.66,574.99 485.63,574.11 C483.91,572.62 483.79,570.99 484.05,552.50 C484.21,541.50 484.26,516.64 484.17,497.25 L 484.00 462.00 L 320.74 462.00 L 308.12 454.81 C301.18,450.86 289.42,443.95 282.00,439.47 C274.58,434.99 262.65,428.00 255.50,423.93 C248.35,419.87 241.52,415.50 240.33,414.21 C239.14,412.93 236.60,411.45 234.70,410.93 C230.14,409.67 226.00,406.34 226.00,403.93 C226.00,402.03 228.95,402.00 408.10,402.00 C577.94,402.00 590.39,402.11 593.08,403.71 L 595.97 405.41 L 595.99 517.10 C596.01,618.25 595.87,628.84 594.43,629.39 ZM 544.12 365.94 C541.73,367.22 177.29,367.42 175.22,366.14 C174.26,365.54 174.05,340.91 174.25,251.44 L 174.50 137.50 L 177.00 137.85 C178.38,138.05 181.98,139.51 185.00,141.10 C188.02,142.69 190.98,144.00 191.56,144.00 C192.15,144.00 193.51,144.83 194.60,145.84 C195.68,146.85 198.81,148.80 201.54,150.17 C212.65,155.76 213.50,156.20 220.79,160.20 C223.93,161.92 229.43,164.87 233.00,166.75 C236.57,168.64 239.95,170.52 240.50,170.94 C241.69,171.85 249.59,176.12 268.15,185.88 C275.66,189.83 282.41,193.79 283.15,194.68 C284.23,195.98 284.60,207.21 285.00,251.40 L 285.50 306.50 L 450.50 307.50 L 455.34 310.50 C463.44,315.52 467.36,317.86 470.50,319.53 C474.45,321.63 479.49,324.59 498.59,336.04 C507.34,341.29 516.53,346.65 519.00,347.95 C521.47,349.25 525.75,351.76 528.50,353.52 C531.25,355.29 535.64,357.77 538.26,359.05 C540.88,360.32 543.73,362.15 544.59,363.10 C546.03,364.69 545.99,364.93 544.12,365.94 ZM 595.44 345.29 C594.49,347.76 591.09,347.34 586.50,344.18 C584.30,342.67 580.70,340.52 578.50,339.41 C576.30,338.30 562.12,330.26 547.00,321.55 C531.88,312.84 516.64,304.19 513.14,302.33 C509.64,300.48 504.47,297.45 501.64,295.60 C498.81,293.76 496.05,292.08 495.50,291.87 C494.95,291.67 490.59,289.34 485.80,286.70 C480.26,283.64 476.84,281.09 476.39,279.70 C476.00,278.49 475.65,246.54 475.62,208.70 C475.61,205.53 475.61,202.51 475.61,199.62 C475.55,147.08 475.54,139.20 478.20,138.17 C478.67,137.99 479.22,138.02 479.87,138.06 C480.07,138.07 480.28,138.08 480.50,138.09 C481.60,138.12 486.33,140.10 491.00,142.48 C495.67,144.87 502.42,148.27 506.00,150.04 C509.58,151.81 518.35,156.19 525.50,159.77 C532.65,163.36 547.05,170.52 557.50,175.69 C567.95,180.85 578.08,185.98 580.00,187.09 C581.92,188.19 585.08,189.80 587.00,190.67 C593.17,193.45 593.48,193.66 594.64,195.95 C595.89,198.41 596.66,342.11 595.44,345.29 ZM 293.92 559.39 L 293.98 628.69 L 291.74 629.69 C290.51,630.24 288.38,630.36 287.00,629.96 C283.24,628.87 177.77,576.05 175.75,574.25 C174.11,572.79 174.00,567.84 174.00,497.35 L 174.00 422.00 L 176.12 422.00 C177.28,422.00 180.77,423.54 183.87,425.41 C186.97,427.29 192.43,430.37 196.00,432.25 C203.65,436.28 208.65,439.16 215.50,443.46 C218.25,445.19 223.43,448.09 227.00,449.90 C230.57,451.72 235.52,454.48 238.00,456.04 C240.48,457.61 246.77,461.24 252.00,464.10 C257.23,466.97 263.75,470.75 266.50,472.50 C269.25,474.25 273.98,476.93 277.00,478.45 C280.02,479.98 283.17,481.80 284.00,482.49 C284.83,483.19 286.50,484.07 287.72,484.44 C288.95,484.81 290.83,486.24 291.90,487.60 C293.80,490.01 293.86,492.20 293.92,559.39 Z" fill="rgb(98,59,225)"/>
<path d="M 595.97 401.50 L 595.99 517.10 L 595.97 405.41 L 593.08 403.71 C590.39,402.11 577.94,402.00 408.10,402.00 C228.95,402.00 226.00,402.03 226.00,403.93 C226.00,406.34 230.14,409.67 234.70,410.93 C236.60,411.45 239.14,412.93 240.33,414.21 C241.41,415.37 247.04,419.03 253.38,422.71 C248.46,419.91 243.98,417.40 240.50,415.50 C237.75,414.01 233.93,411.77 232.00,410.54 C230.07,409.30 226.25,406.99 223.50,405.39 L 218.50 402.50 L 228.00 402.26 C233.23,402.13 318.16,401.90 416.73,401.76 ZM 491.37 142.67 L 491.00 142.48 C486.33,140.10 481.60,138.12 480.50,138.09 C480.28,138.08 480.07,138.07 479.87,138.06 C479.22,138.02 478.67,137.99 478.20,138.17 C475.54,139.20 475.55,147.08 475.61,199.62 C475.61,202.51 475.61,205.53 475.62,208.70 C475.63,218.22 475.66,227.37 475.70,235.75 C475.36,193.04 475.33,135.00 475.92,135.00 C476.33,135.00 481.80,137.68 488.08,140.96 C489.14,141.52 490.24,142.09 491.37,142.67 ZM 293.83 628.76 C293.80,632.11 293.77,633.96 293.74,633.96 C293.61,633.94 291.92,633.10 290.00,632.10 C288.08,631.10 261.98,618.03 232.00,603.05 C205.84,589.97 183.22,578.43 177.26,575.14 C190.40,582.37 283.47,628.93 287.00,629.96 C288.38,630.36 290.51,630.24 291.74,629.69 ZM 594.43 629.39 C595.08,629.14 595.47,626.80 595.70,614.77 C595.50,628.28 595.21,632.99 594.76,632.99 C594.16,632.98 589.51,630.71 583.86,627.69 C588.66,630.02 591.66,630.45 594.43,629.39 ZM 484.00 462.19 L 484.17 497.25 C484.26,516.64 484.21,541.50 484.05,552.50 L 484.05 552.71 C483.95,544.03 483.92,532.34 483.94,517.07 ZM 539.44 603.60 C559.98,614.65 571.20,620.73 577.29,624.12 C568.36,619.25 554.06,611.50 539.44,603.60 ZM 485.85 286.73 C490.62,289.36 494.95,291.67 495.50,291.87 C493.55,291.14 489.63,289.00 485.85,286.73 ZM 476.46 279.87 C476.65,280.29 477.07,280.79 477.70,281.36 C477.03,280.84 476.61,280.44 476.52,280.22 C476.50,280.17 476.48,280.05 476.46,279.87 ZM 257.83 425.27 C265.04,429.40 275.33,435.45 282.00,439.47 C289.42,443.95 301.18,450.86 308.12,454.81 C301.18,450.86 289.42,443.96 282.00,439.48 C274.75,435.10 265.95,429.94 257.83,425.27 ZM 484.91 573.30 C485.01,573.45 485.11,573.59 485.22,573.71 C485.13,573.64 485.06,573.57 485.02,573.53 C484.98,573.48 484.95,573.40 484.91,573.30 Z" fill="rgb(113,88,197)"/>
<path d="M 0.00 384.00 L 0.00 0.00 L 384.00 0.00 L 768.00 0.00 L 768.00 384.00 L 768.00 768.00 L 384.00 768.00 L 0.00 768.00 L 0.00 384.00 ZM 293.92 562.04 C293.86,492.23 293.80,490.01 291.90,487.60 C290.83,486.24 288.95,484.81 287.72,484.44 C286.50,484.07 284.83,483.19 284.00,482.49 C283.17,481.80 280.02,479.98 277.00,478.45 C273.98,476.93 269.25,474.25 266.50,472.50 C263.75,470.75 257.23,466.97 252.00,464.10 C246.77,461.24 240.48,457.61 238.00,456.04 C235.52,454.48 230.57,451.72 227.00,449.90 C223.43,448.09 218.25,445.19 215.50,443.46 C208.65,439.16 203.65,436.28 196.00,432.25 C192.43,430.37 186.97,427.29 183.87,425.41 C180.77,423.54 177.28,422.00 176.12,422.00 L 174.00 422.00 L 174.00 497.35 C174.00,567.84 174.11,572.79 175.75,574.25 C176.71,575.11 202.02,588.07 232.00,603.05 C261.98,618.03 288.08,631.10 290.00,632.10 C291.92,633.10 293.61,633.94 293.74,633.96 C293.87,633.98 293.95,601.62 293.92,562.04 ZM 595.99 517.25 L 595.97 401.50 L 416.73 401.76 C318.16,401.90 233.23,402.13 228.00,402.26 L 218.50 402.50 L 223.50 405.39 C226.25,406.99 230.07,409.30 232.00,410.54 C233.93,411.77 237.75,414.01 240.50,415.50 C250.53,420.96 268.82,431.52 282.00,439.48 C289.42,443.96 301.18,450.86 308.12,454.81 L 320.74 462.00 L 402.37 462.00 L 484.00 462.00 L 483.94 517.07 C483.89,557.07 484.19,572.52 485.02,573.53 C485.65,574.28 493.44,578.81 502.33,583.59 C525.05,595.79 566.17,618.04 581.00,626.14 C587.88,629.90 594.07,632.98 594.76,632.99 C595.76,633.00 596.01,609.55 595.99,517.25 ZM 544.12 365.94 C545.99,364.93 546.03,364.69 544.59,363.10 C543.73,362.15 540.88,360.32 538.26,359.05 C535.64,357.77 531.25,355.29 528.50,353.52 C525.75,351.76 521.47,349.25 519.00,347.95 C516.53,346.65 507.34,341.29 498.59,336.04 C479.49,324.59 474.45,321.63 470.50,319.53 C467.36,317.86 463.44,315.52 455.34,310.50 L 450.50 307.50 L 368.00 307.00 L 285.50 306.50 L 285.00 251.40 C284.60,207.21 284.23,195.98 283.15,194.68 C282.41,193.79 275.66,189.83 268.15,185.88 C249.59,176.12 241.69,171.85 240.50,170.94 C239.95,170.52 236.57,168.64 233.00,166.75 C229.43,164.87 223.93,161.92 220.79,160.20 C213.50,156.20 212.65,155.76 201.54,150.17 C198.81,148.80 195.68,146.85 194.60,145.84 C193.51,144.83 192.15,144.00 191.56,144.00 C190.98,144.00 188.02,142.69 185.00,141.10 C181.98,139.51 178.38,138.05 177.00,137.85 L 174.50 137.50 L 174.25 251.44 C174.05,340.91 174.26,365.54 175.22,366.14 C177.29,367.42 541.73,367.22 544.12,365.94 ZM 595.44 345.29 C596.66,342.11 595.89,198.41 594.64,195.95 C593.48,193.66 593.17,193.45 587.00,190.67 C585.08,189.80 581.92,188.19 580.00,187.09 C578.08,185.98 567.95,180.85 557.50,175.69 C547.05,170.52 532.65,163.36 525.50,159.77 C518.35,156.19 509.58,151.83 506.00,150.09 C502.42,148.35 494.36,144.24 488.08,140.96 C481.80,137.68 476.33,135.00 475.92,135.00 C475.00,135.00 475.59,277.84 476.52,280.22 C477.06,281.59 491.15,290.25 495.50,291.87 C496.05,292.08 498.81,293.76 501.64,295.60 C504.47,297.45 509.64,300.48 513.14,302.33 C516.64,304.19 531.88,312.84 547.00,321.55 C562.12,330.26 576.30,338.30 578.50,339.41 C580.70,340.52 584.30,342.67 586.50,344.18 C591.09,347.34 594.49,347.76 595.44,345.29 Z" fill="rgb(234,234,234)"/>
</g>
</svg>